<svg xmlns="http://www.w3.org/2000/svg" width="24" height="24" viewBox="0 0 24 24" fill="none" stroke="currentColor" stroke-width="1.5" stroke-linecap="round" stroke-linejoin="round">
  <path d="M10 19.655A6 6 0 0 1 6 14v-3a4 4 0 0 1 4-4h4a4 4 0 0 1 4 3.97" />
  <path d="M14.12 3.88 16 2" />
  <path d="M21 5a4 4 0 0 1-3.55 3.97" />
  <path d="M3 21a4 4 0 0 1 3.81-4" />
  <path d="M3 5a4 4 0 0 0 3.55 3.97" />
  <path d="M6 13H2" />
  <path d="m8 2 1.88 1.88" />
  <path d="M9 7.13V6a3 3 0 1 1 6 0v1.13" />
  <path d="M18 14h-3a1 1 0 0 0-1 1v6a1 1 0 0 0 1 1h6a1 1 0 0 0 1-1v-3z" />
  <path d="M21 14v3a1 1 0 0 0 1 1h0" />
</svg>
